<?xml version="1.0" encoding="utf-8"?>
<!-- Generator: Adobe Illustrator 22.1.0, SVG Export Plug-In . SVG Version: 6.00 Build 0)  -->
<svg version="1.1" id="Calque_1" xmlns="http://www.w3.org/2000/svg" xmlns:xlink="http://www.w3.org/1999/xlink" x="0px" y="0px"
	 viewBox="0 0 831.5 110.5" style="enable-background:new 0 0 831.5 110.5;" xml:space="preserve">
<style type="text/css">
	.st0{fill:#EFEFEF;}
	.st1{fill:#353435;}
</style>
<path class="st0" d="M93.2,109.7H17.6c-9.1,0-16.5-7.4-16.5-16.5V17.7c0-9.1,7.4-16.5,16.5-16.5h75.5c9.1,0,16.5,7.4,16.5,16.5v75.5
	C109.7,102.3,102.3,109.7,93.2,109.7z"/>
<path class="st0" d="M213.3,109.7h-75.5c-9.1,0-16.5-7.4-16.5-16.5V17.7c0-9.1,7.4-16.5,16.5-16.5h75.5c9.1,0,16.5,7.4,16.5,16.5
	v75.5C229.8,102.3,222.4,109.7,213.3,109.7z"/>
<path class="st0" d="M333.5,109.7h-75.5c-9.1,0-16.5-7.4-16.5-16.5V17.7c0-9.1,7.4-16.5,16.5-16.5h75.5c9.1,0,16.5,7.4,16.5,16.5
	v75.5C350,102.3,342.6,109.7,333.5,109.7z"/>
<path class="st0" d="M453.6,109.7h-75.5c-9.1,0-16.5-7.4-16.5-16.5V17.7c0-9.1,7.4-16.5,16.5-16.5h75.5c9.1,0,16.5,7.4,16.5,16.5
	v75.5C470.1,102.3,462.7,109.7,453.6,109.7z"/>
<path class="st0" d="M573.8,109.7h-75.5c-9.1,0-16.5-7.4-16.5-16.5V17.7c0-9.1,7.4-16.5,16.5-16.5h75.5c9.1,0,16.5,7.4,16.5,16.5
	v75.5C590.3,102.3,582.9,109.7,573.8,109.7z"/>
<path class="st0" d="M693.9,109.7h-75.5c-9.1,0-16.5-7.4-16.5-16.5V17.7c0-9.1,7.4-16.5,16.5-16.5h75.5c9.1,0,16.5,7.4,16.5,16.5
	v75.5C710.4,102.3,703,109.7,693.9,109.7z"/>
<path class="st0" d="M814.1,109.7h-75.5c-9.1,0-16.5-7.4-16.5-16.5V17.7c0-9.1,7.4-16.5,16.5-16.5h75.5c9.1,0,16.5,7.4,16.5,16.5
	v75.5C830.6,102.3,823.2,109.7,814.1,109.7z"/>
<path class="st1" d="M32.5,82c-0.4-0.4-0.6-0.8-0.6-1.4V30.3c0-0.6,0.2-1,0.5-1.4s0.8-0.6,1.4-0.6h20.4c7.6,0,13.6,1.8,17.8,5.5
	c4.2,3.6,6.5,8.9,6.7,15.7c0.1,1.5,0.1,3.5,0.1,6c0,2.5,0,4.4-0.1,5.9c-0.5,14.2-8.6,21.2-24.1,21.2H33.9
	C33.4,82.6,32.9,82.4,32.5,82z M54.3,70.9c3.3,0,5.7-0.8,7.2-2.3c1.5-1.6,2.4-4,2.5-7.4c0.1-1.5,0.2-3.4,0.2-5.8
	c0-2.4-0.1-4.3-0.2-5.7c-0.1-3.3-1-5.7-2.7-7.3c-1.7-1.6-4.1-2.4-7.4-2.4h-7.4v31H54.3z"/>
<path class="st1" d="M148.8,80.9c-0.3-0.3-0.5-0.7-0.5-1.1c0-0.3,0-0.5,0.1-0.7l18.1-49.7c0.5-1.5,1.6-2.2,3.1-2.2h12.1
	c1.5,0,2.6,0.8,3.1,2.2l18.1,49.7c0.1,0.2,0.1,0.4,0.1,0.7c0,0.4-0.2,0.8-0.5,1.1c-0.3,0.3-0.7,0.5-1.1,0.5h-10.1
	c-1.2,0-2.1-0.6-2.6-1.7l-2.8-7.5h-20.3l-2.8,7.5c-0.5,1.1-1.4,1.7-2.6,1.7h-10.1C149.5,81.4,149.1,81.2,148.8,80.9z M168.6,60.5
	h13.8l-6.9-19.8L168.6,60.5z"/>
<path class="st1" d="M278.2,76.8c-4.2-3.6-6.4-8.8-6.7-15.7c-0.1-1.4-0.1-3.7-0.1-6.8c0-3.2,0-5.5,0.1-7c0.3-6.7,2.5-11.9,6.8-15.5
	c4.3-3.6,10-5.5,17.3-5.5c4.6,0,8.7,0.8,12.4,2.2c3.6,1.5,6.5,3.7,8.6,6.5c2.1,2.8,3.2,6.2,3.3,10.1c0,0.5-0.2,0.9-0.5,1.2
	c-0.3,0.3-0.7,0.5-1.2,0.5h-11c-0.7,0-1.3-0.1-1.6-0.4c-0.3-0.3-0.6-0.8-0.9-1.6c-0.7-2.5-1.8-4.3-3.3-5.3c-1.5-1-3.4-1.5-5.9-1.5
	c-5.8,0-8.9,3.3-9.1,9.8c-0.1,1.4-0.1,3.5-0.1,6.4c0,2.9,0,5.1,0.1,6.6c0.2,6.5,3.2,9.8,9.1,9.8c2.4,0,4.3-0.5,5.9-1.6
	c1.5-1,2.6-2.8,3.3-5.3c0.2-0.8,0.5-1.3,0.9-1.6c0.4-0.3,0.9-0.4,1.6-0.4h11c0.5,0,0.9,0.2,1.2,0.5c0.3,0.3,0.5,0.7,0.5,1.2
	c-0.1,3.9-1.2,7.2-3.3,10.1c-2.1,2.8-5,5-8.6,6.5s-7.8,2.2-12.4,2.2C288.2,82.2,282.4,80.4,278.2,76.8z"/>
<path class="st1" d="M409,82c-0.4-0.4-0.6-0.8-0.6-1.4V40.9h-13.6c-0.6,0-1-0.2-1.4-0.5c-0.4-0.4-0.6-0.8-0.6-1.4v-8.7
	c0-0.6,0.2-1,0.6-1.4s0.9-0.6,1.4-0.6h42.1c0.6,0,1,0.2,1.4,0.6s0.6,0.9,0.6,1.4V39c0,0.6-0.2,1-0.6,1.4c-0.4,0.4-0.9,0.5-1.4,0.5
	h-13.6v39.7c0,0.6-0.2,1-0.6,1.4c-0.4,0.4-0.9,0.5-1.4,0.5h-10.8C409.9,82.6,409.4,82.4,409,82z"/>
<path class="st1" d="M529.3,82c-0.4-0.4-0.6-0.8-0.6-1.4V64.1l-17.9-33.3c-0.2-0.3-0.2-0.5-0.2-0.9c0-0.4,0.2-0.8,0.5-1.1
	c0.3-0.3,0.7-0.5,1.1-0.5h10.2c0.7,0,1.3,0.2,1.8,0.5s0.8,0.7,1,1.2L536,49.5L546.8,30c0.2-0.4,0.5-0.8,1-1.2
	c0.5-0.4,1.1-0.5,1.8-0.5h10.2c0.4,0,0.8,0.2,1.1,0.5c0.3,0.3,0.5,0.7,0.5,1.1c0,0.3-0.1,0.6-0.2,0.9l-17.9,33.3v16.5
	c0,0.6-0.2,1-0.6,1.4c-0.4,0.4-0.9,0.5-1.4,0.5h-10.6C530.1,82.6,529.7,82.4,529.3,82z"/>
<path class="st1" d="M636,82c-0.4-0.4-0.6-0.8-0.6-1.4V30.3c0-0.6,0.2-1,0.5-1.4s0.8-0.6,1.4-0.6h21.9c6.7,0,12,1.5,15.8,4.6
	c3.8,3,5.7,7.5,5.7,13.4s-1.9,10.3-5.7,13.2c-3.8,2.9-9.1,4.4-15.8,4.4h-8.8v16.7c0,0.5-0.2,1-0.5,1.4s-0.8,0.6-1.4,0.6h-11.2
	C636.9,82.6,636.4,82.4,636,82z M658.9,52.8c2.1,0,3.8-0.6,5-1.7c1.2-1.1,1.8-2.8,1.8-4.9c0-2-0.6-3.6-1.7-4.9
	c-1.1-1.2-2.8-1.9-5.2-1.9h-8.7v13.3H658.9z"/>
<path class="st1" d="M759,78c-4.2-3.6-6.5-8.8-6.7-15.7c-0.1-1.4-0.1-3.7-0.1-6.7c0-3,0-5.2,0.1-6.7c0.2-6.8,2.5-12.1,6.8-15.8
	c4.3-3.7,10.1-5.5,17.3-5.5c7.2,0,12.9,1.8,17.2,5.5c4.3,3.7,6.6,9,6.8,15.8c0.1,3,0.2,5.2,0.2,6.7c0,1.6-0.1,3.8-0.2,6.7
	c-0.3,6.9-2.5,12.2-6.7,15.7c-4.2,3.6-10,5.3-17.3,5.3C769,83.3,763.2,81.5,759,78z M782.7,69.3c1.6-1.6,2.5-4.1,2.6-7.5
	c0.1-3,0.2-5.1,0.2-6.4c0-1.3-0.1-3.4-0.2-6.3c-0.1-3.4-1-5.9-2.6-7.5c-1.6-1.6-3.7-2.4-6.4-2.4c-2.7,0-4.9,0.8-6.5,2.4
	c-1.6,1.6-2.5,4.1-2.6,7.5c-0.1,1.4-0.1,3.5-0.1,6.3c0,2.8,0,4.9,0.1,6.4c0.1,3.4,1,5.9,2.6,7.5c1.6,1.6,3.8,2.4,6.5,2.4
	C779,71.7,781.1,70.9,782.7,69.3z"/>
</svg>
